#Comment line ignore any data following # character 
#Hierarchical Translation and Rotation (.htr) file 
[Header]	
#Header keywords are followed by a single value 
FileType HTR		#Single word string
DataType HTRS		#Translation followed by rotation and scale data
FileVersion 1		#integer
NumSegments 64		#integer
NumFrames 3		#integer
DataFrameRate 30		#integer, data frame rate in this file
EulerRotationOrder ZYX
CalibrationUnits mm
RotationUnits Degrees
GlobalAxisofGravity Y
BoneLengthAxis Y
ScaleFactor 1.00
[SegmentNames&Hierarchy]
#CHILD	PARENT
Pinger_Root GLOBAL
Pelvis Pinger_Root
L_Hip Pelvis
R_Hip Pelvis
Rear_Leg01 Pelvis
Spine1 Pelvis
L_Leg01 L_Hip
L_Leg02 L_Leg01
L_Leg03 L_Leg02
L_Foot L_Leg03
L_Toe1_01 L_Foot
L_Toe2_01 L_Foot
L_Toe3_01 L_Foot
planeAlignerLeft L_Foot
L_Toe1_02 L_Toe1_01
L_Toe1_03 L_Toe1_02
L_Toe2_02 L_Toe2_01
L_Toe2_03 L_Toe2_02
L_Toe3_02 L_Toe3_01
L_Toe3_03 L_Toe3_02
planeLockWeightLeft planeAlignerLeft
R_Leg01 R_Hip
R_Leg02 R_Leg01
R_Leg03 R_Leg02
R_Foot R_Leg03
planeAlignerRight R_Foot
R_Toe1_01 R_Foot
R_Toe2_01 R_Foot
R_Toe3_01 R_Foot
planeLockWeightRight planeAlignerRight
R_Toe1_02 R_Toe1_01
R_Toe1_03 R_Toe1_02
R_Toe2_02 R_Toe2_01
R_Toe2_03 R_Toe2_02
R_Toe3_02 R_Toe3_01
R_Toe3_03 R_Toe3_02
Rear_Leg02 Rear_Leg01
Rear_Leg03 Rear_Leg02
Rear_Leg04 Rear_Leg03
Rear_Foot Rear_Leg04
planeAlignerCenter Rear_Foot
Rear_Toe1_01 Rear_Foot
Rear_Toe2_01 Rear_Foot
Rear_Toe3_01 Rear_Foot
planeLockWeightCenter planeAlignerCenter
Rear_Toe1_02 Rear_Toe1_01
Rear_Toe1_03 Rear_Toe1_02
Rear_Toe2_02 Rear_Toe2_01
Rear_Toe2_03 Rear_Toe2_02
Rear_Toe3_02 Rear_Toe3_01
Rear_Toe3_03 Rear_Toe3_02
Back_Bone Spine1
Head Spine1
Motor_Bone Back_Bone
Ping_Mechanism Back_Bone
BN_LookIK Head
bottomMouth Head
L_Mouth01 Head
L_mouthFront Head
mouthGun Head
R_Mouth01 Head
R_mouthFront Head
TopMouth Head
weapon_bone Head
[BasePosition]
#SegmentName Tx, Ty, Tz, Rx, Ry, Rz, BoneLength
Pinger_Root 0.000000 0.000000 0.000000 -90.000000 0.000000 0.000000 10.000000 
Pelvis 0.000000 0.000000 0.000000 0.000000 0.000000 0.000000 10.000000 
L_Hip 0.000000 0.000000 0.000000 0.000000 0.000000 0.000000 10.000000 
R_Hip 0.000000 0.000000 0.000000 0.000000 0.000000 0.000000 10.000000 
Rear_Leg01 0.000000 0.000000 0.000000 0.000000 0.000000 0.000000 10.000000 
Spine1 0.000000 0.000000 0.000000 0.000000 0.000000 0.000000 10.000000 
L_Leg01 0.000000 0.000000 0.000000 0.000000 0.000000 0.000000 10.000000 
L_Leg02 0.000000 0.000000 0.000000 0.000000 0.000000 0.000000 10.000000 
L_Leg03 0.000000 0.000000 0.000000 0.000000 0.000000 0.000000 10.000000 
L_Foot 0.000000 0.000000 0.000000 0.000000 0.000000 0.000000 10.000000 
L_Toe1_01 0.000000 0.000000 0.000000 0.000000 0.000000 0.000000 10.000000 
L_Toe2_01 0.000000 0.000000 0.000000 0.000000 0.000000 0.000000 10.000000 
L_Toe3_01 0.000000 0.000000 0.000000 0.000000 0.000000 0.000000 10.000000 
planeAlignerLeft 0.000000 0.000000 0.000000 0.000000 0.000000 0.000000 10.000000 
L_Toe1_02 0.000000 0.000000 0.000000 0.000000 0.000000 0.000000 10.000000 
L_Toe1_03 0.000000 0.000000 0.000000 0.000000 0.000000 0.000000 10.000000 
L_Toe2_02 0.000000 0.000000 0.000000 0.000000 0.000000 0.000000 10.000000 
L_Toe2_03 0.000000 0.000000 0.000000 0.000000 0.000000 0.000000 10.000000 
L_Toe3_02 0.000000 0.000000 0.000000 0.000000 0.000000 0.000000 10.000000 
L_Toe3_03 0.000000 0.000000 0.000000 0.000000 0.000000 0.000000 10.000000 
planeLockWeightLeft 0.000000 0.000000 0.000000 0.000000 0.000000 0.000000 10.000000 
R_Leg01 0.000000 0.000000 0.000000 0.000000 0.000000 0.000000 10.000000 
R_Leg02 0.000000 0.000000 0.000000 0.000000 0.000000 0.000000 10.000000 
R_Leg03 0.000000 0.000000 0.000000 0.000000 0.000000 0.000000 10.000000 
R_Foot 0.000000 0.000000 0.000000 0.000000 0.000000 0.000000 10.000000 
planeAlignerRight 0.000000 0.000000 0.000000 0.000000 0.000000 0.000000 10.000000 
R_Toe1_01 0.000000 0.000000 0.000000 0.000000 0.000000 0.000000 10.000000 
R_Toe2_01 0.000000 0.000000 0.000000 0.000000 0.000000 0.000000 10.000000 
R_Toe3_01 0.000000 0.000000 0.000000 0.000000 0.000000 0.000000 10.000000 
planeLockWeightRight 0.000000 0.000000 0.000000 0.000000 0.000000 0.000000 10.000000 
R_Toe1_02 0.000000 0.000000 0.000000 0.000000 0.000000 0.000000 10.000000 
R_Toe1_03 0.000000 0.000000 0.000000 0.000000 0.000000 0.000000 10.000000 
R_Toe2_02 0.000000 0.000000 0.000000 0.000000 0.000000 0.000000 10.000000 
R_Toe2_03 0.000000 0.000000 0.000000 0.000000 0.000000 0.000000 10.000000 
R_Toe3_02 0.000000 0.000000 0.000000 0.000000 0.000000 0.000000 10.000000 
R_Toe3_03 0.000000 0.000000 0.000000 0.000000 0.000000 0.000000 10.000000 
Rear_Leg02 0.000000 0.000000 0.000000 0.000000 0.000000 0.000000 10.000000 
Rear_Leg03 0.000000 0.000000 0.000000 0.000000 0.000000 0.000000 10.000000 
Rear_Leg04 0.000000 0.000000 0.000000 0.000000 0.000000 0.000000 10.000000 
Rear_Foot 0.000000 0.000000 0.000000 0.000000 0.000000 0.000000 10.000000 
planeAlignerCenter 0.000000 0.000000 0.000000 0.000000 0.000000 0.000000 10.000000 
Rear_Toe1_01 0.000000 0.000000 0.000000 0.000000 0.000000 0.000000 10.000000 
Rear_Toe2_01 0.000000 0.000000 0.000000 0.000000 0.000000 0.000000 10.000000 
Rear_Toe3_01 0.000000 0.000000 0.000000 0.000000 0.000000 0.000000 10.000000 
planeLockWeightCenter 0.000000 0.000000 0.000000 0.000000 0.000000 0.000000 10.000000 
Rear_Toe1_02 0.000000 0.000000 0.000000 0.000000 0.000000 0.000000 10.000000 
Rear_Toe1_03 0.000000 0.000000 0.000000 0.000000 0.000000 0.000000 10.000000 
Rear_Toe2_02 0.000000 0.000000 0.000000 0.000000 0.000000 0.000000 10.000000 
Rear_Toe2_03 0.000000 0.000000 0.000000 0.000000 0.000000 0.000000 10.000000 
Rear_Toe3_02 0.000000 0.000000 0.000000 0.000000 0.000000 0.000000 10.000000 
Rear_Toe3_03 0.000000 0.000000 0.000000 0.000000 0.000000 0.000000 10.000000 
Back_Bone 0.000000 0.000000 0.000000 0.000000 0.000000 0.000000 10.000000 
Head 0.000000 0.000000 0.000000 0.000000 0.000000 0.000000 10.000000 
Motor_Bone 0.000000 0.000000 0.000000 0.000000 0.000000 0.000000 10.000000 
Ping_Mechanism 0.000000 0.000000 0.000000 0.000000 0.000000 0.000000 10.000000 
BN_LookIK 0.000000 0.000000 0.000000 0.000000 0.000000 0.000000 10.000000 
bottomMouth 0.000000 0.000000 0.000000 0.000000 0.000000 0.000000 10.000000 
L_Mouth01 0.000000 0.000000 0.000000 0.000000 0.000000 0.000000 10.000000 
L_mouthFront 0.000000 0.000000 0.000000 0.000000 0.000000 0.000000 10.000000 
mouthGun 0.000000 0.000000 0.000000 0.000000 0.000000 0.000000 10.000000 
R_Mouth01 0.000000 0.000000 0.000000 0.000000 0.000000 0.000000 10.000000 
R_mouthFront 0.000000 0.000000 0.000000 0.000000 0.000000 0.000000 10.000000 
TopMouth 0.000000 0.000000 0.000000 0.000000 0.000000 0.000000 10.000000 
weapon_bone 0.000000 0.000000 0.000000 0.000000 0.000000 0.000000 10.000000 
#Beginning of Data. Separated by tabs
#Fr	Tx	Ty	Tz	Rx	Ry	Rz	SF
[Pinger_Root]
3 0.000000 0.000000 0.000000 -0.000075 -0.000000 -0.000020 0.000000
4 0.000000 0.000000 0.000000 -0.000075 -0.000000 -0.000020 0.000000
5 0.000000 0.000000 0.000000 -0.000075 -0.000000 -0.000020 0.000000
[Pelvis]
3 93.037247 904.420593 4445.586914 -153.624237 -81.264320 152.836243 4537.606934
4 93.026810 889.877441 4461.047852 -159.756638 -79.012886 163.218887 4549.887695
5 91.414017 870.212341 4481.413574 -159.914093 -79.148476 166.723068 4566.036621
[L_Hip]
3 5.766392 125.831482 872.656799 160.057358 -46.480122 121.856003 881.701050
4 5.766392 125.831482 872.656799 159.951218 -47.651276 121.319389 881.701050
5 5.766392 125.831482 872.656799 159.836182 -49.371071 120.540207 881.701050
[R_Hip]
3 5.765438 125.836372 -872.654907 38.038586 50.731987 125.544250 881.699829
4 5.765438 125.836372 -872.654907 37.935951 51.988495 125.315819 881.699829
5 5.765438 125.836372 -872.654907 37.821976 53.244736 125.077011 881.699829
[Rear_Leg01]
3 -192.298416 -925.602966 -0.001907 172.631378 -9.372045 -158.597321 945.367432
4 -192.298416 -925.602966 -0.001907 175.017975 -14.328380 -157.407883 945.367432
5 -192.298416 -925.602966 -0.001907 177.382202 -16.232613 -155.887985 945.367432
[Spine1]
3 290.604584 5.007505 0.000477 3.893061 8.499505 19.787086 290.647736
4 290.604584 5.007505 0.000477 1.300880 12.279269 20.227024 290.647736
5 290.604584 5.007505 0.000477 -1.342115 13.180485 20.546560 290.647736
[L_Leg01]
3 761.932007 -0.002384 -0.069261 28.345682 -23.208256 4.208331 761.932068
4 761.932007 -0.002384 -0.069261 30.491020 -27.473560 7.486260 761.932068
5 761.932007 -0.002384 -0.069261 33.871380 -26.117035 3.897364 761.932068
[L_Leg02]
3 1441.140503 -0.000954 -0.000715 4.071960 -0.196594 -142.545532 1441.140503
4 1441.140503 -0.000954 -0.000715 5.216855 -0.191525 -152.986588 1441.140503
5 1441.140503 -0.000954 -0.000715 6.715563 -0.189016 -166.665710 1441.140503
[L_Leg03]
3 1686.963989 -0.000715 -0.000954 -0.033148 0.015972 119.524353 1686.963989
4 1686.963989 -0.000715 -0.000954 -0.034738 0.016628 120.217079 1686.963989
5 1686.963989 -0.000715 -0.000954 -0.036320 0.017302 120.909729 1686.963989
[L_Foot]
3 3041.570068 -30.715107 11.297464 1.890251 12.352501 56.917259 3041.746094
4 3041.570068 -30.715107 11.297464 2.842261 11.824661 62.184139 3041.746094
5 3041.570068 -30.715107 11.297464 2.418675 11.011797 75.154930 3041.746094
[L_Toe1_01]
3 -188.216690 -224.732346 -21.137953 94.324005 -10.758854 -170.089584 293.899567
4 -188.216690 -224.732346 -21.137953 94.991440 -10.345574 -173.631897 293.899567
5 -188.216690 -224.732346 -21.137953 94.701103 -9.354544 -175.574692 293.899567
[L_Toe2_01]
3 200.746536 -219.926590 148.838394 -88.101738 -26.619499 -56.627510 332.896027
4 200.746536 -219.926590 148.838394 -86.326973 -25.551178 -59.761868 332.896027
5 200.746536 -219.926590 148.838394 -86.026840 -22.909340 -58.370968 332.896027
[L_Toe3_01]
3 188.832520 -219.859131 -191.078659 -99.094841 7.093561 -72.434692 347.140900
4 188.832520 -219.859131 -191.078659 -99.124535 7.098538 -72.044312 347.140900
5 188.832520 -219.859131 -191.078659 -98.600540 7.883043 -70.569740 347.140900
[planeAlignerLeft]
3 117.713318 -705.632202 179.923080 169.306686 -76.298271 89.968506 737.662170
4 108.445435 -705.594177 163.238892 169.273941 -76.891632 90.451576 732.304871
5 84.206238 -705.051270 119.458458 169.256134 -78.440300 91.653748 720.040466
[L_Toe1_02]
3 413.761139 0.000477 0.000000 0.001390 -25.257195 0.001390 413.761139
4 413.761139 0.000477 0.000000 0.001412 -22.476910 0.001412 413.761139
5 413.761139 0.000477 0.000000 0.001469 -16.095011 0.001469 413.761139
[L_Toe1_03]
3 464.317322 0.000358 -0.000089 0.005460 65.176590 0.005460 464.317322
4 464.317322 0.000358 -0.000089 0.014669 80.821999 0.014669 464.317322
5 464.317322 0.000358 -0.000089 -179.996689 76.991562 -179.993164 464.317322
[L_Toe2_02]
3 342.235809 -0.000477 0.000238 -0.002455 -52.295147 -0.002455 342.235809
4 342.235809 -0.000477 0.000238 0.001199 -66.415474 0.001199 342.235809
5 342.235809 -0.000477 0.000238 0.001179 -78.633385 0.001179 342.235809
[L_Toe2_03]
3 420.210846 -0.000715 0.000000 0.007165 50.170704 -0.000274 420.210846
4 420.210846 -0.000715 0.000000 -0.001935 72.148903 -0.005474 420.210846
5 420.210846 -0.000715 0.000000 -179.997894 72.958694 -179.994354 420.210846
[L_Toe3_02]
3 329.270111 0.000954 0.000000 0.001187 -72.942268 0.001187 329.270111
4 329.270111 0.000954 0.000000 -0.006458 -78.208481 0.010580 329.270111
5 329.270111 0.000954 0.000000 -0.027793 -83.474625 0.033646 329.270111
[L_Toe3_03]
3 439.137451 -0.001907 0.000954 0.013021 79.657860 0.013021 439.137451
4 439.137451 -0.001907 0.000954 -179.984100 86.266762 -179.980606 439.137451
5 439.137451 -0.001907 0.000954 179.991364 63.093086 179.998566 439.137451
[planeLockWeightLeft]
3 1000.000000 0.000305 -0.000086 -0.011826 -0.004376 0.005620 1000.000000
4 740.741089 0.000000 -0.000372 -0.011826 -0.004376 0.005620 740.741089
5 259.259399 0.000000 -0.000286 -0.011826 -0.004376 0.005620 259.259399
[R_Leg01]
3 761.455627 -0.001907 -0.000358 126.206390 -1.028294 47.491482 761.455688
4 761.455627 -0.001907 -0.000358 128.606293 3.102858 53.509274 761.455688
5 761.455627 -0.001907 -0.000358 128.892975 5.445745 55.682926 761.455688
[R_Leg02]
3 1441.140625 0.000000 -0.000238 -0.740495 0.012040 -102.966568 1441.140625
4 1441.140625 0.000000 -0.000238 -0.394654 0.082421 -93.832047 1441.140625
5 1441.140625 0.000000 -0.000238 -0.237749 0.100394 -89.937553 1441.140625
[R_Leg03]
3 1686.963989 0.000954 0.001431 0.061025 -0.029191 126.270363 1686.963989
4 1686.963989 0.000954 0.001431 0.047286 -0.021112 122.596840 1686.963989
5 1686.963989 0.000954 0.001431 0.037570 -0.017434 120.341965 1686.963989
[R_Foot]
3 3041.560059 -30.531288 -11.204481 -0.606693 -26.130272 54.071335 3041.734131
4 3041.560059 -30.531288 -11.204481 0.012061 -27.568846 53.183102 3041.734131
5 3041.560059 -30.531288 -11.204481 0.677806 -29.586779 53.175720 3041.734131
[planeAlignerRight]
3 -131.566147 -537.368469 -320.766846 -36.577137 -71.339012 -64.343925 639.504395
4 -135.669708 -503.334534 -328.067383 -36.577137 -71.339012 -64.343925 615.938354
5 -139.773254 -469.300537 -335.367950 -36.577126 -71.339012 -64.343956 593.507507
[R_Toe1_01]
3 -188.383347 -224.864899 21.052242 76.656898 -0.041663 -174.995575 294.101532
4 -188.383347 -224.864899 21.052242 76.563889 0.235051 -176.659683 294.101532
5 -188.383347 -224.864899 21.052242 76.422447 0.573579 -178.436447 294.101532
[R_Toe2_01]
3 200.637817 -220.002121 -148.787384 -91.352257 34.091846 -57.254753 332.857574
4 200.637817 -220.002121 -148.787384 -90.996628 35.220615 -55.269920 332.857574
5 200.637817 -220.002121 -148.787384 -90.587608 36.338463 -53.248158 332.857574
[R_Toe3_01]
3 188.606735 -220.092957 191.126343 -73.186142 -8.744330 -71.499657 347.192566
4 188.606735 -220.092957 191.126343 -73.119125 -9.068836 -69.067841 347.192566
5 188.606735 -220.092957 191.126343 -73.066055 -9.395861 -66.634155 347.192566
[planeLockWeightRight]
3 999.999756 0.000305 -0.000608 -0.011823 -0.004379 -0.000027 999.999756
4 999.999756 0.000305 -0.000603 -0.011823 -0.004379 -0.000027 999.999756
5 999.999817 0.000305 -0.000597 -0.011823 -0.004379 -0.000027 999.999817
[R_Toe1_02]
3 413.762085 0.000477 -0.000119 0.000006 -25.434675 -0.000005 413.762085
4 413.762085 0.000477 -0.000119 0.000006 -25.434675 -0.000005 413.762085
5 413.762085 0.000477 -0.000119 0.000006 -25.434675 -0.000005 413.762085
[R_Toe1_03]
3 464.317810 0.000000 0.001088 0.006822 70.188759 0.006822 464.317810
4 464.317810 0.000000 0.001088 0.006925 70.486458 0.006925 464.317810
5 464.317810 0.000000 0.001088 0.007032 70.784134 0.007032 464.317810
[R_Toe2_02]
3 342.234741 -0.000954 0.000238 0.001194 -69.047951 0.001194 342.234741
4 342.234741 -0.000954 0.000238 0.001191 -70.321609 0.001191 342.234741
5 342.234741 -0.000954 0.000238 0.001189 -71.595047 0.001189 342.234741
[R_Toe2_03]
3 420.210846 0.000715 -0.000268 0.010649 77.345871 0.010649 420.210846
4 420.210846 0.000715 -0.000268 0.014020 80.392639 0.014020 420.210846
5 420.210846 0.000715 -0.000268 0.020510 83.439384 0.020510 420.210846
[R_Toe3_02]
3 329.270355 -0.000477 -0.000954 0.001182 -76.881897 0.001182 329.270355
4 329.270355 -0.000477 -0.000954 0.001180 -78.529221 0.001180 329.270355
5 329.270355 -0.000477 -0.000954 0.001178 -80.176170 0.001178 329.270355
[R_Toe3_03]
3 439.137939 0.000238 0.001431 0.000000 89.528946 0.003492 439.137939
4 439.137939 0.000238 0.001431 -179.988312 85.092842 -179.984818 439.137939
5 439.137939 0.000238 0.001431 -179.995346 79.715836 -179.991837 439.137939
[Rear_Leg02]
3 1162.777710 -0.029802 0.005960 0.634274 -3.803844 -119.648018 1162.777710
4 1162.777710 -0.029802 0.005960 0.617146 -4.834970 -115.742500 1162.777710
5 1162.777710 -0.029802 0.005960 0.739654 -6.311716 -112.327805 1162.777710
[Rear_Leg03]
3 607.192505 -0.013351 -0.073195 0.006490 -0.002065 63.515617 607.192505
4 607.192505 -0.013351 -0.073195 0.006502 -0.002025 62.814716 607.192505
5 607.192505 -0.013351 -0.073195 0.006507 -0.002009 62.520344 607.192505
[Rear_Leg04]
3 995.874512 -0.020504 -0.011921 -0.040313 -0.015704 56.706814 995.874573
4 995.874512 -0.020504 -0.011921 -0.040119 -0.016187 55.327099 995.874573
5 995.874512 -0.020504 -0.011921 -0.040020 -0.016428 54.635765 995.874573
[Rear_Foot]
3 3096.176270 -0.067472 -0.041425 -149.772598 83.189056 41.850655 3096.176270
4 3096.176270 -0.067472 -0.041425 -150.588318 81.505280 40.244942 3096.176270
5 3096.176270 -0.067472 -0.041425 -147.935272 79.679878 41.873867 3096.176270
[planeAlignerCenter]
3 0.411377 -12.245483 -708.751160 12.240769 -0.001473 179.998184 708.857056
4 -0.047150 -10.758362 -661.602051 12.240770 -0.001473 179.998184 661.689453
5 -0.503502 -15.175476 -639.065308 12.240769 -0.001473 179.998184 639.245728
[Rear_Toe1_01]
3 0.653352 83.966492 -371.173737 0.287364 36.949726 90.433136 380.553192
4 0.653352 83.966492 -371.173737 0.284538 33.472145 90.452309 380.553192
5 0.653352 83.966492 -371.173737 0.294268 31.675867 90.477692 380.553192
[Rear_Toe2_01]
3 178.200760 -294.826019 -362.060547 -7.499245 30.814375 -66.317932 499.765686
4 178.200760 -294.826019 -362.060547 -7.686556 28.294044 -66.349739 499.765686
5 178.200760 -294.826019 -362.060547 -7.647707 27.052601 -66.456688 499.765686
[Rear_Toe3_01]
3 -153.359680 -308.780914 -362.060852 3.534390 30.074432 -112.544952 499.952881
4 -153.359680 -308.780914 -362.060852 3.704098 27.666082 -112.543610 499.952881
5 -153.359680 -308.780914 -362.060852 3.804036 26.425423 -112.439682 499.952881
[planeLockWeightCenter]
3 1000.000244 0.000570 -0.000078 -0.011814 -0.004373 -0.000015 1000.000244
4 1000.000244 0.000549 -0.000084 -0.011814 -0.004373 -0.000015 1000.000244
5 1000.000244 0.000529 -0.000090 -0.011814 -0.004373 -0.000015 1000.000244
[Rear_Toe1_02]
3 379.707825 0.194073 0.000477 -0.000767 -33.624729 0.000838 379.707855
4 379.707825 0.194073 0.000477 -0.000767 -33.624729 0.000838 379.707855
5 379.707825 0.194073 0.000477 -0.000767 -33.624729 0.000838 379.707855
[Rear_Toe1_03]
3 500.129700 0.165701 0.000119 -0.004153 61.682346 -0.000546 500.129761
4 500.129700 0.165701 0.000119 -0.004750 67.665253 -0.001185 500.129761
5 500.129700 0.165701 0.000119 0.007141 71.081711 0.007141 500.129761
[Rear_Toe2_02]
3 340.494507 0.000238 -0.000954 0.001188 -72.004150 0.001188 340.494507
4 340.494507 0.000238 -0.000954 0.001187 -72.893074 0.001187 340.494507
5 340.494507 0.000238 -0.000954 0.001187 -72.721016 0.001187 340.494507
[Rear_Toe2_03]
3 433.103577 0.000000 0.000238 0.008036 73.204948 0.008036 433.103546
4 433.103577 0.000000 0.000238 0.008779 74.634689 0.008779 433.103546
5 433.103577 0.000000 0.000238 0.008623 74.355110 0.008623 433.103546
[Rear_Toe3_02]
3 340.494141 -0.000358 -0.000477 0.001193 -69.420792 0.001193 340.494171
4 340.494141 -0.000358 -0.000477 0.001191 -70.253128 0.001191 340.494171
5 340.494141 -0.000358 -0.000477 0.001192 -69.963142 0.001192 340.494171
[Rear_Toe3_03]
3 433.103577 0.001431 -0.000238 0.006489 69.160301 0.006489 433.103546
4 433.103577 0.001431 -0.000238 0.006898 70.408470 0.006898 433.103546
5 433.103577 0.001431 -0.000238 0.006748 69.967186 0.006748 433.103546
[Back_Bone]
3 1312.175781 -701.934692 0.000954 1.247663 0.102761 -85.509262 1488.125488
4 1312.175781 -701.934692 0.000954 1.133070 0.153433 -85.459633 1488.125488
5 1312.175781 -701.934692 0.000954 1.018520 0.204203 -85.410080 1488.125488
[Head]
3 1406.159424 809.709290 0.001431 -0.290047 -1.099171 7.661533 1622.625488
4 1406.159424 809.709290 0.001431 -0.435631 -0.911149 7.607575 1622.625488
5 1406.159424 809.709290 0.001431 -0.819294 -0.429075 7.450404 1622.625488
[Motor_Bone]
3 1158.364380 -417.834747 0.000477 -0.238525 0.080502 -105.910851 1231.419434
4 1158.364380 -417.834747 0.000477 -0.310095 0.082705 -105.908417 1231.419434
5 1158.364380 -417.834747 0.000477 -0.381665 0.084912 -105.905983 1231.419434
[Ping_Mechanism]
3 1235.068970 -439.332886 -38.931454 0.000103 -0.000053 82.120995 1311.458862
4 1232.724365 -435.838013 -52.835789 0.000103 -0.000053 82.120995 1308.570068
5 1230.191040 -434.718475 -52.167824 0.000103 -0.000053 82.120995 1305.783936
[BN_LookIK]
3 193.241119 1380.371704 -0.002861 0.000000 89.965736 -31.038179 1393.832153
4 193.241119 1380.371704 -0.002861 0.000000 89.965736 -31.038179 1393.832153
5 193.241119 1380.371704 -0.002861 0.000000 89.965736 -31.038179 1393.832153
[bottomMouth]
3 -435.092926 615.759399 -0.000954 -0.000022 0.000016 73.527184 753.966492
4 -435.092926 615.759399 -0.000954 -0.000022 0.000016 73.527184 753.966492
5 -435.092926 615.759399 -0.000954 -0.000022 0.000016 73.527184 753.966492
[L_Mouth01]
3 554.440979 7.658243 838.222046 150.204178 23.759130 109.605339 1005.027161
4 554.440979 7.658243 838.222046 150.204178 23.759130 109.605339 1005.027161
5 554.440979 7.658243 838.222046 150.204178 23.759130 109.605339 1005.027161
[L_mouthFront]
3 551.629089 934.514771 339.150421 0.000081 2.804060 79.119301 1136.941284
4 551.629089 934.514771 339.150421 0.000081 2.804060 79.119301 1136.941284
5 551.629089 934.514771 339.150421 0.000081 2.804060 79.119301 1136.941284
[mouthGun]
3 55.332661 1627.420898 0.000000 0.000023 0.000009 -11.038128 1628.361328
4 55.332661 1627.420898 0.000000 0.000023 0.000009 -11.038128 1628.361328
5 55.332661 1627.420898 0.000000 0.000023 0.000009 -11.038128 1628.361328
[R_Mouth01]
3 554.442383 7.659197 -838.223938 29.795891 -23.759109 109.605331 1005.029541
4 554.442383 7.659197 -838.223938 29.795891 -23.759109 109.605331 1005.029541
5 554.442383 7.659197 -838.223938 29.795891 -23.759109 109.605331 1005.029541
[R_mouthFront]
3 551.629089 934.514282 -339.151367 0.000029 -2.803930 79.119133 1136.941162
4 551.629089 934.514282 -339.151367 0.000029 -2.803930 79.119133 1136.941162
5 551.629089 934.514282 -339.151367 0.000029 -2.803930 79.119133 1136.941162
[TopMouth]
3 461.269867 -56.106091 -0.008583 -0.000059 -0.000268 92.025169 464.669525
4 461.269867 -56.106091 -0.008583 -0.000059 -0.000268 92.025169 464.669525
5 461.269867 -56.106091 -0.008583 -0.000059 -0.000268 92.025169 464.669525
[weapon_bone]
3 -987.239868 1448.372803 0.001431 0.000000 89.965736 -31.038221 1752.833740
4 -987.239868 1448.372803 0.001431 0.000000 89.965736 -31.038221 1752.833740
5 -987.239868 1448.372803 0.001431 0.000000 89.965736 -31.038221 1752.833740
